<?xml version="1.0" encoding="UTF-8"?>
<svg version="1.1" xmlns="http://www.w3.org/2000/svg" width="388" height="78">
<path d="M0 0 C128.04 0 256.08 0 388 0 C388 25.74 388 51.48 388 78 C259.96 78 131.92 78 0 78 C0 52.26 0 26.52 0 0 Z " fill="#020202" transform="translate(0,0)"/>
<path d="M0 0 C6.71011773 3.43421633 11.4179049 9.57601224 14.1875 16.5 C16.17396198 24.90749051 16.13991898 33.68364903 12.1875 41.5 C8.38996186 47.10900748 3.97322866 51.15207088 -2.8125 52.5 C-10.96768817 53.25001148 -18.2557406 53.74919194 -24.9453125 48.41015625 C-31.82567598 41.37145804 -35.08569775 33.99981785 -35.1875 24.125 C-35.0696473 16.11101621 -33.59746566 11.72469708 -28.4375 5.75 C-20.02689706 -1.45908824 -10.71098616 -4.18484313 0 0 Z " fill="#020202" transform="translate(74.8125,12.5)"/>
<path d="M0 0 C6.95866893 4.90269857 11.52935868 11.38884532 14.375 19.375 C14.79384805 22.18107728 14.85264206 24.91616162 14.8125 27.75 C14.80492676 28.49950928 14.79735352 29.24901855 14.78955078 30.02124023 C14.61514497 35.88293054 13.62688305 40.41106637 10.375 45.375 C9.95089844 46.06851563 9.52679688 46.76203125 9.08984375 47.4765625 C3.31321318 56.06909934 -5.67580799 60.99526083 -15.625 63.375 C-27.449844 64.73822683 -38.20242235 61.64745926 -47.625 54.375 C-54.73039534 47.16275661 -58.65638962 38.39956438 -58.9375 28.25 C-58.82594668 18.94149518 -54.91442282 11.13030599 -48.625 4.375 C-35.07387334 -8.2415662 -15.63121781 -9.41009768 0 0 Z M-41.625 10.375 C-47.22416584 18.15161923 -47.28980281 25.09585098 -46.625 34.375 C-44.695871 42.74190805 -40.17253297 48.43130243 -33.6875 53.8125 C-27.53414693 57.0061866 -18.8951168 56.31111329 -12.30859375 54.8671875 C-5.60035936 52.25592848 -1.36446968 47.68484046 1.61328125 41.33984375 C4.62525691 33.57049115 4.24960261 25.09040123 1.28125 17.3671875 C-1.83689118 10.51265302 -6.62419935 5.42192127 -13.3125 2 C-24.8819589 -0.18291677 -33.77970413 1.22215482 -41.625 10.375 Z " fill="#F7F7F7" transform="translate(86.625,9.625)"/>
<path d="M0 0 C5.28 0 10.56 0 16 0 C19.37655456 7.31085188 22.53892293 14.65856081 25.50390625 22.14453125 C26.33503717 24.22340697 27.16642484 26.30218006 27.99804688 28.38085938 C29.28670415 31.6097699 30.57320805 34.83949156 31.85522461 38.07104492 C33.1070122 41.22301608 34.36733243 44.37146664 35.62890625 47.51953125 C36.00817764 48.48212357 36.38744904 49.44471588 36.7782135 50.43647766 C38.76996007 55.38921086 40.8680435 59.67662656 44 64 C44.33 64.66 44.66 65.32 45 66 C39.39 66 33.78 66 28 66 C28.33 64.35 28.66 62.7 29 61 C28.61835863 58.99189999 28.61835863 58.99189999 27.78515625 57.1171875 C27.51123047 56.42496094 27.23730469 55.73273437 26.95507812 55.01953125 C26.66052734 54.31183594 26.36597656 53.60414062 26.0625 52.875 C23 45.33758315 23 45.33758315 23 42 C14.42 42.33 5.84 42.66 -3 43 C-3.99 45.536875 -4.98 48.07375 -6 50.6875 C-6.31324219 51.47729248 -6.62648438 52.26708496 -6.94921875 53.08081055 C-8.37817449 56.81811576 -9.4830952 59.93143259 -9 64 C-8.67 64.66 -8.34 65.32 -8 66 C-12.95 66 -17.9 66 -23 66 C-22.13246094 64.66066406 -21.26492188 63.32132813 -20.37109375 61.94140625 C-16.38361311 55.28936683 -13.755688 48.17557892 -11.0625 40.9375 C-10.02072486 38.17564033 -8.97323989 35.41595825 -7.92578125 32.65625 C-7.6729538 31.98730209 -7.42012634 31.31835419 -7.15963745 30.62913513 C-4.90248253 24.67993348 -2.48535713 18.80276841 0.12084961 12.99780273 C1.76335906 9.1934112 2.45670821 6.14042046 2 2 C1.34 1.34 0.68 0.68 0 0 Z " fill="#F5F5F5" transform="translate(315,5)"/>
<path d="M0 0 C1.06927734 -0.0009668 1.06927734 -0.0009668 2.16015625 -0.00195312 C7.19542014 0.04867567 11.4905038 0.60100127 16.25 2.1875 C16.25 5.8175 16.25 9.4475 16.25 13.1875 C13.88320129 12.00410065 11.52498408 10.80279767 9.1875 9.5625 C4.36876306 7.52260272 -0.61341613 7.58506115 -5.75 8.1875 C-8.86937969 9.56002707 -10.2397715 10.167043 -11.75 13.1875 C-12.25095023 16.06056228 -12.25095023 16.06056228 -11.75 19.1875 C-8.05703158 23.63890915 -4.06674263 25.77199891 1.0625 28.125 C6.94320103 30.94744339 12.3816477 33.76754857 17.25 38.1875 C18.075 38.93 18.9 39.6725 19.75 40.4375 C22.0498145 44.65382657 21.96957331 48.49558829 21.25 53.1875 C19.1380758 59.34530145 14.64614218 63.23774483 9.16796875 66.3828125 C0.44702517 70.5191141 -9.68311547 70.42513777 -19 68.3125 C-21.80909809 67.22596206 -22.571341 66.52627792 -23.9921875 63.83203125 C-26.19497817 57.07745633 -26.19497817 57.07745633 -24.75 54.1875 C-23.93015625 54.60902344 -23.1103125 55.03054687 -22.265625 55.46484375 C-21.18796875 56.01269531 -20.1103125 56.56054688 -19 57.125 C-17.39898437 57.94291016 -17.39898437 57.94291016 -15.765625 58.77734375 C-9.66955602 61.62796668 -3.96019069 62.1225645 2.5 59.9375 C5.73574614 58.58927244 7.74041224 57.48972322 9.25 54.1875 C9.78757859 50.57804377 9.66528781 48.84399033 7.703125 45.7421875 C4.63838105 42.55055925 1.54492134 41.06595084 -2.4375 39.25 C-3.87563929 38.55871185 -5.31185559 37.8634085 -6.74609375 37.1640625 C-7.43558105 36.82793945 -8.12506836 36.49181641 -8.83544922 36.14550781 C-14.61372064 33.25416159 -20.26441614 30.19411669 -23.16015625 24.17578125 C-24.75525781 18.79891573 -24.5543665 13.96380936 -22.25 8.875 C-15.72252703 1.85796656 -9.36466405 -0.00865496 0 0 Z " fill="#F7F7F7" transform="translate(236.75,3.8125)"/>
<path d="M0 0 C1.06927734 -0.0009668 1.06927734 -0.0009668 2.16015625 -0.00195312 C7.19542014 0.04867567 11.4905038 0.60100127 16.25 2.1875 C16.25 5.8175 16.25 9.4475 16.25 13.1875 C13.88320129 12.00410065 11.52498408 10.80279767 9.1875 9.5625 C4.36876306 7.52260272 -0.61341613 7.58506115 -5.75 8.1875 C-8.86937969 9.56002707 -10.2397715 10.167043 -11.75 13.1875 C-12.25095023 16.06056228 -12.25095023 16.06056228 -11.75 19.1875 C-8.05703158 23.63890915 -4.06674263 25.77199891 1.0625 28.125 C6.94320103 30.94744339 12.3816477 33.76754857 17.25 38.1875 C18.075 38.93 18.9 39.6725 19.75 40.4375 C22.0498145 44.65382657 21.96957331 48.49558829 21.25 53.1875 C19.1380758 59.34530145 14.64614218 63.23774483 9.16796875 66.3828125 C0.44702517 70.5191141 -9.68311547 70.42513777 -19 68.3125 C-21.80909809 67.22596206 -22.571341 66.52627792 -23.9921875 63.83203125 C-26.19497817 57.07745633 -26.19497817 57.07745633 -24.75 54.1875 C-23.93015625 54.60902344 -23.1103125 55.03054687 -22.265625 55.46484375 C-21.18796875 56.01269531 -20.1103125 56.56054688 -19 57.125 C-17.39898437 57.94291016 -17.39898437 57.94291016 -15.765625 58.77734375 C-9.66955602 61.62796668 -3.96019069 62.1225645 2.5 59.9375 C5.73574614 58.58927244 7.74041224 57.48972322 9.25 54.1875 C9.78757859 50.57804377 9.66528781 48.84399033 7.703125 45.7421875 C4.63838105 42.55055925 1.54492134 41.06595084 -2.4375 39.25 C-3.87563929 38.55871185 -5.31185559 37.8634085 -6.74609375 37.1640625 C-7.43558105 36.82793945 -8.12506836 36.49181641 -8.83544922 36.14550781 C-14.61372064 33.25416159 -20.26441614 30.19411669 -23.16015625 24.17578125 C-24.75525781 18.79891573 -24.5543665 13.96380936 -22.25 8.875 C-15.72252703 1.85796656 -9.36466405 -0.00865496 0 0 Z " fill="#F7F7F7" transform="translate(130.75,3.8125)"/>
<path d="M0 0 C1.91635217 -0.05423638 3.83314925 -0.09289963 5.75 -0.125 C7.35101563 -0.15980469 7.35101563 -0.15980469 8.984375 -0.1953125 C12.11284112 0.00730836 13.40632274 0.32315604 16 2 C17.70751953 4.29077148 17.70751953 4.29077148 19.3828125 7.12109375 C19.99253906 8.13880859 20.60226563 9.15652344 21.23046875 10.20507812 C21.85566406 11.27177734 22.48085937 12.33847656 23.125 13.4375 C24.37736635 15.54050622 25.62996034 17.64337691 26.8828125 19.74609375 C27.43340332 20.68122803 27.98399414 21.6163623 28.55126953 22.57983398 C29.65115068 24.41723234 30.81214203 26.21821305 32 28 C34.69931786 24.3562558 37.36335207 20.68935764 40 17 C40.81404297 15.86111328 40.81404297 15.86111328 41.64453125 14.69921875 C44.33044184 10.71292494 45.80928904 7.97134693 45 3 C44.34 2.01 43.68 1.02 43 0 C48.61 0 54.22 0 60 0 C58.24072568 4.39818579 56.20382773 7.89419243 53.5625 11.75 C53.13018066 12.40556885 52.69786133 13.0611377 52.25244141 13.73657227 C49.92734435 17.25081889 47.53021887 20.62933631 44.89453125 23.91796875 C36.33091321 35.05026253 35.62322657 44.67704101 36.48486328 58.49902344 C36.97709638 61.58691233 36.97709638 61.58691233 40 66 C34.39 66 28.78 66 23 66 C23.66 64.35 24.32 62.7 25 61 C27.57027048 46.54277157 25.45183681 35.17386349 17.20703125 23.13110352 C16.03218881 21.48488747 14.84274408 19.84897034 13.63720703 18.22509766 C11.42273976 15.21545633 9.4452834 12.08823411 7.4375 8.9375 C5.22043293 5.57486599 2.92599576 2.77233296 0 0 Z " fill="#F6F6F6" transform="translate(153,5)"/>
<path d="M0 0 C5.94 0 11.88 0 18 0 C17.01 1.65 16.02 3.3 15 5 C14.55816341 7.72492103 14.55816341 7.72492103 14.62768555 10.62890625 C14.62145676 11.73355225 14.61522797 12.83819824 14.60881042 13.97631836 C14.61802017 15.1597583 14.62722992 16.34319824 14.63671875 17.5625 C14.63622025 18.78654541 14.63572174 20.01059082 14.63520813 21.27172852 C14.63754653 23.85727565 14.64726116 26.44282514 14.66381836 29.02832031 C14.68741195 32.98523319 14.68437688 36.94147214 14.67773438 40.8984375 C14.68331127 43.41146235 14.69042121 45.92448436 14.69921875 48.4375 C14.69830734 49.62093994 14.69739594 50.80437988 14.69645691 52.02368164 C14.70598892 53.12832764 14.71552094 54.23297363 14.7253418 55.37109375 C14.72994919 56.33974365 14.73455658 57.30839355 14.73930359 58.30639648 C14.91895292 61.47458084 14.91895292 61.47458084 17 66 C11.72 66 6.44 66 1 66 C1.66 64.35 2.32 62.7 3 61 C3.30567957 58.27047565 3.30567957 58.27047565 3.2746582 55.37109375 C3.28419022 54.26644775 3.29372223 53.16180176 3.30354309 52.02368164 C3.30263168 50.8402417 3.30172028 49.65680176 3.30078125 48.4375 C3.30506638 47.21345459 3.3093515 45.98940918 3.31376648 44.72827148 C3.31950426 42.14274717 3.32001412 39.55720672 3.31567383 36.97167969 C3.31251174 33.01469449 3.33598866 29.05845541 3.36132812 25.1015625 C3.36360093 22.58854261 3.3643047 20.07552071 3.36328125 17.5625 C3.372491 16.37906006 3.38170074 15.19562012 3.39118958 13.97631836 C3.38496078 12.87167236 3.37873199 11.76702637 3.37231445 10.62890625 C3.37294388 9.66025635 3.3735733 8.69160645 3.3742218 7.69360352 C3.09946196 4.42607493 3.09946196 4.42607493 0 0 Z " fill="#FCFCFC" transform="translate(366,5)"/>
<path d="M0 0 C5.94 0 11.88 0 18 0 C17.01 1.65 16.02 3.3 15 5 C14.55816341 7.72492103 14.55816341 7.72492103 14.62768555 10.62890625 C14.62145676 11.73355225 14.61522797 12.83819824 14.60881042 13.97631836 C14.61802017 15.1597583 14.62722992 16.34319824 14.63671875 17.5625 C14.63622025 18.78654541 14.63572174 20.01059082 14.63520813 21.27172852 C14.63754653 23.85727565 14.64726116 26.44282514 14.66381836 29.02832031 C14.68741195 32.98523319 14.68437688 36.94147214 14.67773438 40.8984375 C14.68331127 43.41146235 14.69042121 45.92448436 14.69921875 48.4375 C14.69830734 49.62093994 14.69739594 50.80437988 14.69645691 52.02368164 C14.70598892 53.12832764 14.71552094 54.23297363 14.7253418 55.37109375 C14.72994919 56.33974365 14.73455658 57.30839355 14.73930359 58.30639648 C14.91895292 61.47458084 14.91895292 61.47458084 17 66 C11.72 66 6.44 66 1 66 C1.66 64.35 2.32 62.7 3 61 C3.30567957 58.27047565 3.30567957 58.27047565 3.2746582 55.37109375 C3.28419022 54.26644775 3.29372223 53.16180176 3.30354309 52.02368164 C3.30263168 50.8402417 3.30172028 49.65680176 3.30078125 48.4375 C3.30506638 47.21345459 3.3093515 45.98940918 3.31376648 44.72827148 C3.31950426 42.14274717 3.32001412 39.55720672 3.31567383 36.97167969 C3.31251174 33.01469449 3.33598866 29.05845541 3.36132812 25.1015625 C3.36360093 22.58854261 3.3643047 20.07552071 3.36328125 17.5625 C3.372491 16.37906006 3.38170074 15.19562012 3.39118958 13.97631836 C3.38496078 12.87167236 3.37873199 11.76702637 3.37231445 10.62890625 C3.37294388 9.66025635 3.3735733 8.69160645 3.3742218 7.69360352 C3.09946196 4.42607493 3.09946196 4.42607493 0 0 Z " fill="#FCFCFC" transform="translate(4,5)"/>
<path d="M0 0 C2.21964141 2.21964141 2.84038634 3.80371901 3.9453125 6.71875 C4.29980469 7.65074219 4.65429688 8.58273438 5.01953125 9.54296875 C5.38433594 10.51878906 5.74914062 11.49460937 6.125 12.5 C6.68380859 13.96373047 6.68380859 13.96373047 7.25390625 15.45703125 C10 22.72965316 10 22.72965316 10 25 C3.73 25 -2.54 25 -9 25 C-6.61584032 16.39053449 -3.39757674 8.24654549 0 0 Z " fill="#080808" transform="translate(324,14)"/>
<path d="M0 0 C3.5625 0.3125 3.5625 0.3125 5.5625 1.375 C7.19628851 4.54046524 6.41517564 6.96270286 5.5625 10.3125 C2.32996204 12.46752531 1.31099077 12.78106135 -2.4375 12.3125 C-4.25 11.25 -4.25 11.25 -5.4375 9.3125 C-5.75 5.75 -5.75 5.75 -5.4375 2.3125 C-3.4375 0.3125 -3.4375 0.3125 0 0 Z " fill="#F3F3F3" transform="translate(275.4375,60.6875)"/>
</svg>
